<?xml version="1.0" encoding="utf-8"?>
<!-- Generator: Adobe Illustrator 21.0.2, SVG Export Plug-In . SVG Version: 6.00 Build 0)  -->
<svg version="1.1" id="Capa_1" xmlns="http://www.w3.org/2000/svg" xmlns:xlink="http://www.w3.org/1999/xlink" x="0px" y="0px"
	 viewBox="0 0 512.4 641.8" style="enable-background:new 0 0 512.4 641.8;" xml:space="preserve">
<style type="text/css">
	.st0{fill:#231F20;}
	.st1{fill:#F04B49;}
</style>
<g>
	<path class="st0" d="M205,3.3l-60.8,50.7l0.2,0.1c0,0-10.2,7.7-10.2,20.8V164c0,0,0,5.3,0,10.3c0,3.5,0,6.8,0,8.2
		c0-5.1,4.7-12.1,9.8-16.3l60.9-50.8v0c9.3-7.8,9.3-23.6,9.3-23.6V6.5c0,0,0,0,0,0C214.1-0.8,210.3-1.2,205,3.3z"/>
	<path class="st1" d="M374.1,161.6L374.1,161.6V76.3l0,0c0,0,0-14-10-22.3l0,0L302,2.2c0,0,0,0,0,0c-3.2-2.7-7.8-4.4-7.8,4.5v101
		l77.6,64.6C373.2,169,374.1,165.4,374.1,161.6z"/>
	<g>
		<path class="st0" d="M101.1,451.3H122v14.9h0.3c4-10.1,14.9-17,25.6-17c1.6,0,3.4,0.3,4.8,0.8v20.5c-2-0.5-5.3-0.8-7.9-0.8
			c-16.1,0-21.7,11.6-21.7,25.7v36.1h-22V451.3z"/>
		<path class="st0" d="M197.5,449.2c25.3,0,41.5,16.7,41.5,42.3c0,25.4-16.3,42.1-41.5,42.1c-25.1,0-41.4-16.7-41.4-42.1
			C156.1,465.9,172.4,449.2,197.5,449.2z M197.5,517c15,0,19.5-12.9,19.5-25.6c0-12.9-4.5-25.7-19.5-25.7
			c-14.9,0-19.4,12.9-19.4,25.7C178.1,504.2,182.6,517,197.5,517z"/>
		<path class="st0" d="M281.2,451.3h16.1v14.7h-16.1v39.7c0,7.4,1.9,9.3,9.3,9.3c2.3,0,4.5-0.2,6.8-0.6v17.2
			c-3.7,0.6-8.5,0.8-12.9,0.8c-13.5,0-25.3-3.1-25.3-19.1v-47.3h-13.3v-14.7h13.3v-24h22V451.3z"/>
		<path class="st0" d="M326,496.7c0.6,13.9,7.4,20.3,19.7,20.3c8.8,0,16-5.4,17.3-10.4h19.4c-6.2,18.9-19.4,27-37.5,27
			c-25.2,0-40.9-17.4-40.9-42.1c0-24,16.6-42.3,40.9-42.3c27.3,0,40.4,22.9,38.9,47.6H326z M361.8,482.8c-2-11.2-6.8-17-17.5-17
			c-13.9,0-18,10.8-18.3,17H361.8z"/>
		<path class="st0" d="M419.5,438.9h-22v-18.1h22V438.9z M397.5,451.3h22v80.1h-22V451.3z"/>
		<path class="st0" d="M436.8,451.3h20.9v11.2h0.5c5.6-9,15.2-13.3,24.5-13.3c23.4,0,29.3,13.2,29.3,33v49.3h-22v-45.2
			c0-13.2-3.9-19.7-14.1-19.7c-11.9,0-17,6.7-17,22.9v42h-22V451.3z"/>
		<path class="st0" d="M49.9,420.8H0v99.3c0,1.7,0.6,3.8,2.4,5.3c0,0,0,0,0,0.1l17.9,15c2.2,1.8,4.1,1.2,4.1-1.4v-47.4h25.6
			c27.6,0,38.3-17.5,38.3-35.5C88.2,438.3,77.5,420.8,49.9,420.8z M43.2,472.9H24.3v-33.2h18.9c11.3,0,21.4,2.5,21.4,16.6
			C64.6,470.4,54.5,472.9,43.2,472.9z"/>
	</g>
	<path class="st0" d="M294.1,107.6l-67.9,56.5c-11.5,9.6-4.6,16.4,0,20.2l56.5,47.1c5.8,4.8,13.5,7.6,20.8,1.5v0l59.3-49.4
		c0,0,0,0,0,0c3.7-3,6.7-6.9,8.7-11.3L294.1,107.6z"/>
	<path class="st1" d="M214.1,251.2c-0.9-6.2-2.3-12.1-9.8-18.4h0l-54.1-45.1l0,0c-10.2-8.5-16.1-19.2-16.1-31.9c0,4.3,0,10.4,0,18.4
		v3.7v98.3c0,10,7.2,15.8,7.2,15.8l-0.1,0.1l61.7,51.4c4.7,3.9,11.3,8.1,11.3-3.5l0,0L214.1,251.2
		C214.1,251.2,214.1,251.2,214.1,251.2z"/>
	<g>
		<path class="st0" d="M143.6,629c0,4.8,3.7,6.6,7.9,6.6c2.8,0,7-0.8,7-4.5c0-3.9-5.4-4.5-10.6-5.9c-5.3-1.4-10.7-3.5-10.7-10.2
			c0-7.3,6.9-10.8,13.4-10.8c7.5,0,14.3,3.3,14.3,11.5h-7.6c-0.3-4.3-3.3-5.4-7.1-5.4c-2.5,0-5.4,1.1-5.4,4.1
			c0,2.8,1.7,3.1,10.7,5.4c2.6,0.7,10.6,2.3,10.6,10.4c0,6.6-5.2,11.5-14.9,11.5c-7.9,0-15.3-3.9-15.2-12.7H143.6z"/>
		<path class="st0" d="M196.9,604.3c11.1,0,17.6,8.3,17.6,18.9c0,10.3-6.5,18.6-17.6,18.6c-11.1,0-17.6-8.3-17.6-18.6
			C179.3,612.5,185.8,604.3,196.9,604.3z M196.9,635.1c7.1,0,9.7-6,9.7-12c0-6.3-2.7-12.3-9.7-12.3c-7.1,0-9.7,6-9.7,12.3
			C187.2,629.1,189.8,635.1,196.9,635.1z"/>
		<path class="st0" d="M253.8,617.1c-0.5-3.6-3.9-6.3-7.8-6.3c-7.1,0-9.7,6-9.7,12.3c0,6,2.7,12,9.7,12c4.8,0,7.5-3.3,8.1-8h7.6
			c-0.8,8.9-7,14.6-15.7,14.6c-11.1,0-17.6-8.3-17.6-18.6c0-10.6,6.5-18.9,17.6-18.9c7.9,0,14.5,4.6,15.4,12.9H253.8z"/>
		<path class="st0" d="M277.1,605.1h7.9v35.8h-7.9V605.1z"/>
		<path class="st0" d="M311.7,605.1h8.1l13.4,35.8H325l-2.7-8h-13.4l-2.8,8h-8L311.7,605.1z M311,627.1h9.3l-4.5-13.1h-0.1
			L311,627.1z"/>
		<path class="st0" d="M346.4,605.1h7.9v29.2h17.5v6.6h-25.3V605.1z"/>
	</g>
</g>
</svg>
