<?xml version="1.0" encoding="iso-8859-1"?>
<!-- Generator: Adobe Illustrator 19.0.0, SVG Export Plug-In . SVG Version: 6.00 Build 0)  -->
<svg version="1.1" id="Layer_1" xmlns="http://www.w3.org/2000/svg" xmlns:xlink="http://www.w3.org/1999/xlink" x="0px" y="0px"
	 viewBox="0 0 512 512" style="enable-background:new 0 0 512 512;" xml:space="preserve">
<path style="fill:#464655;" d="M494.345,39.724H17.655C7.905,39.724,0,47.628,0,57.379v317.793c0,9.75,7.905,17.655,17.655,17.655
	h476.69c9.75,0,17.655-7.905,17.655-17.655V57.379C512,47.628,504.095,39.724,494.345,39.724z M485.517,313.379H26.483V66.207
	h459.034V313.379z"/>
<path style="fill:#C7CFE2;" d="M0,339.862v35.31c0,9.751,7.904,17.655,17.655,17.655h476.69c9.751,0,17.655-7.904,17.655-17.655
	v-35.31H0z"/>
<polygon style="fill:#AFB9D2;" points="326.621,463.448 185.379,463.448 194.207,392.828 317.793,392.828 "/>
<g>
	<polygon style="fill:#959CB3;" points="320,410.483 317.793,392.828 194.207,392.828 192,410.483 	"/>
	<circle style="fill:#959CB3;" cx="256" cy="366.345" r="13.241"/>
</g>
<g>
	<path style="fill:#C7CFE2;" d="M326.621,472.276H185.379c-4.875,0-8.828-3.953-8.828-8.828l0,0c0-4.875,3.953-8.828,8.828-8.828
		h141.241c4.875,0,8.828,3.953,8.828,8.828l0,0C335.448,468.323,331.496,472.276,326.621,472.276z"/>
	<path style="fill:#C7CFE2;" d="M167.724,198.621h-8.828c-9.751,0-17.655-7.904-17.655-17.655V163.31
		c0-9.751,7.904-17.655,17.655-17.655h8.828V198.621z"/>
</g>
<path style="fill:#FF6464;" d="M247.172,207.448h-79.448c-4.875,0-8.828-3.953-8.828-8.828v-52.966c0-4.875,3.953-8.828,8.828-8.828
	h79.448V207.448z"/>
<path style="fill:#AFB9D2;" d="M373.55,191.805l-20.447,6.816v-52.966l20.447,6.816c3.605,1.202,6.036,4.575,6.036,8.374v22.585
	C379.586,187.23,377.155,190.603,373.55,191.805z"/>
<polygon style="fill:#D7DEED;" points="353.103,242.759 247.172,207.448 247.172,136.828 353.103,101.517 "/>
<path style="fill:#C7CFE2;" d="M353.103,251.586L353.103,251.586c-4.875,0-8.828-3.953-8.828-8.828V101.517
	c0-4.875,3.953-8.828,8.828-8.828l0,0c4.875,0,8.828,3.953,8.828,8.828v141.241C361.931,247.634,357.978,251.586,353.103,251.586z"
	/>
<path style="fill:#FF6464;" d="M240.504,286.897h-19.919c-4.138,0-7.72-2.873-8.617-6.913l-16.12-72.535h35.31l15.852,71.337
	C247.936,282.948,244.768,286.897,240.504,286.897z"/>
<g>
	<path style="fill:#D2555A;" d="M229.517,225.103h-35.31c-4.875,0-8.828-3.953-8.828-8.828v-8.828h52.966v8.828
		C238.345,221.151,234.392,225.103,229.517,225.103z"/>
	<path style="fill:#D2555A;" d="M176.552,207.448h-8.828c-4.875,0-8.828-3.953-8.828-8.828v-52.966c0-4.875,3.953-8.828,8.828-8.828
		h8.828V207.448z"/>
</g>
<g>
</g>
<g>
</g>
<g>
</g>
<g>
</g>
<g>
</g>
<g>
</g>
<g>
</g>
<g>
</g>
<g>
</g>
<g>
</g>
<g>
</g>
<g>
</g>
<g>
</g>
<g>
</g>
<g>
</g>
</svg>
